<svg version="1.1" xmlns="http://www.w3.org/2000/svg" xmlns:xlink="http://www.w3.org/1999/xlink" x="0px" y="0px" viewBox="0 0 500 295" enable-background="new 0 0 500 295" xml:space="preserve" style="position: absolute;">
<g>
	<path fill="#f1f1f2" d="M310,5.8c0,0-30.9-11.9-35,11.3s-0.6,36.2,6.5,42.1s17.2,8.9,16.6-1.8c-0.6-10.7-1.8-25.5,7.7-23.1
		s68.2,30.9,68.2,30.9l39.5,50.5l-204.5,82.5L29.4,88.8c-4-2.4-8.6-3.7-13.3-3.2c-7,0.6-15.4,10.4-13.3,27.7
		c3.6,29.7,13.4,41.1,17.5,41.1c8.5,0,8.3-8.5,6.5-15.6s-0.6-16.6,1.8-15.4c2.4,1.2,62.9,38.6,62.9,38.6l52.2,73.6l68.7,43.9
		c1.4,2.4,4.3,3.8,7.2,2.8v0c4.9-1.6,10.2,0.3,12.9,4.7l0.2,0.4c2.7,4.4,8.2,6.2,12.9,4.2l69.5-28.6c16.8-7.5,15.9-16.5,24.5-32.8
		l15.7-29.6c2-3.7,5.3-6.6,9.4-7.9l3.1-1c4.3-1.4,9,0.2,11.6,4l9.9,14.6c4.1,6.1,12.1,8.4,18.8,5.4l55.6-24.3
		c5.5-2.4,9.5-7.2,10.8-13l0.3-1.3c1.7-7.2,6.5-13.1,13.2-16.2c3.2-1.5,5.2-4.5,5.4-8l3.8-70.9L310,5.8z" class="color color-1" data-color="#F1F1F2"></path>
</g>
<g>
	<path fill="#55aedf" d="M319.9,235.3l-71.2,32.3c-6.5,2.9-13.8-1.8-13.8-8.9v-37.4c0-9.6,5.8-18.3,14.6-22l71.9-30.4
		c6.4-2.7,13.6,2,13.6,9v33.9C335.1,221.9,329.2,231.1,319.9,235.3z" class="color color-2" data-color="#55AEDF"></path>
</g>
<g>
	<path fill="#e43f32" d="M463.7,169.7l-55.9,26c-5.8,2.7-12.5-1.6-12.5-8v-29.7c0-12.7,7.8-24.2,19.6-28.9l55.2-21.8
		c4.3-1.7,9,1.6,8.8,6.2l-1.2,35.1C477.3,157.8,471.9,165.9,463.7,169.7z" class="color color-3" data-color="#E43F32"></path>
</g>
<path opacity="0.2" fill="#939292" d="M497.5,81.8L310,5.8c0,0-30.9-11.9-35,11.3s-0.6,36.2,6.5,42.1s17.2,8.9,16.6-1.8
	c-0.6-10.7-1.8-25.5,7.7-23.1s68.2,30.9,68.2,30.9l39.5,50.5L497.5,81.8z"></path>
<path opacity="0.18" fill="#939292" d="M209.1,198.1L29.4,88.8c-4-2.4-8.6-3.7-13.3-3.2c-7,0.6-15.4,10.4-13.3,27.7
	c3.6,29.7,13.4,41.1,17.5,41.1c8.5,0,8.3-8.5,6.5-15.6c-1.8-7.1-0.6-16.6,1.8-15.4s62.9,38.6,62.9,38.6l52.2,73.6l68.7,43.9
	L209.1,198.1z"></path>
</svg>
