<svg xmlns="http://www.w3.org/2000/svg" viewBox="0 0 36 36" style="position: absolute;">
 <g><path d="m4 11v0.137c0-0.042 0.011-0.084 0.015-0.126l-0.015-0.011zm13 11.137c-0.146-0.067-0.287-0.145-0.412-0.246l-12.023-9.646c-0.377-0.305-0.565-0.706-0.565-1.108v12.238c0 2.042 1.093 2.484 1.093 2.484l11.574 9.099c0.205 0.161 0.377 0.259 0.528 0.318-0.114-0.174-0.195-0.375-0.195-0.604v-12.535zm-8.773 0.363c-0.994 0-2.033-1.007-2.319-2.25-0.287-1.242 0.287-2.249 1.28-2.249 0.994 0 2.033 1.007 2.319 2.249 0.287 1.243-0.286 2.25-1.28 2.25zm5.583 7.5c-0.994 0-2.033-1.008-2.319-2.25-0.287-1.243 0.287-2.25 1.281-2.25s2.033 1.007 2.319 2.25c0.286 1.242-0.287 2.25-1.281 2.25z" fill="#a0041e" class="color color-1" data-color="#A0041E"></path></g>
 <g><path d="m31.435 12.161l-12.104 9.73c-0.102 0.083-0.214 0.152-0.331 0.212v12.569c0 0.233-0.083 0.437-0.2 0.614 0.155-0.058 0.335-0.16 0.548-0.328 1.821-1.432 11.588-9.099 11.588-9.099s1.064-0.442 1.064-2.484v-12.322c0 0.402-0.188 0.803-0.565 1.108zm-7.457 16.731c-0.242 1.137-1.119 2.058-1.958 2.058-0.838 0-1.322-0.921-1.08-2.058s1.118-2.058 1.957-2.058 1.322 0.921 1.081 2.058zm3.538-5.271c-0.254 1.172-1.178 2.121-2.062 2.121-0.883 0-1.392-0.949-1.138-2.121 0.255-1.172 1.179-2.121 2.061-2.121 0.885 0 1.394 0.949 1.139 2.121zm3.063-5.105c-0.251 1.115-1.163 2.017-2.035 2.017s-1.375-0.902-1.123-2.017c0.251-1.113 1.162-2.016 2.034-2.016 0.873 0 1.376 0.903 1.124 2.016zm1.415-7.511c0.001 0.016 0.006 0.032 0.006 0.048v-0.053l-0.006 0.005z" fill="#dd2e44" class="color color-2" data-color="#DD2E44"></path></g>
 <g><path d="m31.435 9.945l-12.146-9.445c-0.753-0.61-1.988-0.61-2.742 0l-11.982 9.529c-0.338 0.273-0.515 0.624-0.551 0.983-0.003 0.042-0.014 0.083-0.014 0.125 0 0.402 0.188 0.803 0.565 1.108l12.023 9.646c0.125 0.101 0.265 0.178 0.412 0.246v12.535c0 0.229 0.081 0.43 0.194 0.604 0.181 0.28 0.466 0.474 0.806 0.474 0.336 0 0.619-0.19 0.8-0.464 0.117-0.176 0.2-0.38 0.2-0.614v-12.569c0.117-0.06 0.229-0.129 0.331-0.212l12.104-9.73c0.377-0.305 0.565-0.706 0.565-1.108 0-0.016-0.005-0.032-0.006-0.049-0.014-0.385-0.198-0.767-0.559-1.059zm-12.935-1.278c1.61 0 2.916 1.044 2.916 2.333s-1.306 2.333-2.916 2.333c-1.611 0-2.916-1.044-2.916-2.333s1.305-2.333 2.916-2.333z" fill="#ea596e" class="color color-3" data-color="#EA596E"></path></g>
 <g><ellipse cx="18.5" cy="11" fill="#ffffff" rx="2.916" ry="2.333" class="color color-4 primaryColor" data-color="#FFF"></ellipse></g>
 <g><path d="m29.455 16.5c-0.872 0-1.783 0.903-2.034 2.016-0.252 1.115 0.251 2.017 1.123 2.017s1.784-0.902 2.035-2.017c0.252-1.113-0.251-2.016-1.124-2.016zm-3.077 5c-0.883 0-1.807 0.949-2.061 2.121s0.255 2.121 1.138 2.121c0.884 0 1.808-0.949 2.062-2.121s-0.255-2.121-1.139-2.121zm-3.482 5.334c-0.839 0-1.715 0.921-1.957 2.058s0.242 2.058 1.08 2.058c0.839 0 1.716-0.921 1.958-2.058s-0.242-2.058-1.081-2.058z" fill="#ffffff" class="color color-4 primaryColor" data-color="#FFF"></path></g>
 <g><path d="m7.188 18.001c-0.994 0-1.567 1.007-1.28 2.249 0.287 1.243 1.325 2.25 2.319 2.25s1.567-1.007 1.28-2.25c-0.286-1.242-1.325-2.249-2.319-2.249zm5.583 7.499c-0.994 0-1.567 1.007-1.281 2.25 0.287 1.242 1.326 2.25 2.32 2.25s1.567-1.008 1.281-2.25c-0.287-1.243-1.326-2.25-2.32-2.25z" fill="#e1e8ed" class="color color-5" data-color="#E1E8ED"></path></g>
</svg>
