<svg xmlns="http://www.w3.org/2000/svg" viewBox="0 0 36 36" style="position: absolute;">
 <g><path clip-rule="evenodd" d="m1.24 15.018c0.24 0.239 1.438 0.957 1.677 1.675 0.24 0.717 0.72 5.307 2.158 6.504 1.483 1.232 7.077 0.773 8.148 0.24 2.397-1.195 2.691-5.055 3.115-6.745 0.239-0.957 1.677-0.957 1.677-0.957s1.438 0 1.678 0.956c0.424 1.691 0.72 5.562 3.115 6.755 1.072 0.535 6.666 0.994 8.151-0.238 1.436-1.197 1.915-5.799 2.155-6.517 0.238-0.717 1.438-1.435 1.677-1.674 0.241-0.239 0.241-1.196 0-1.436-0.479-0.478-6.134-0.904-12.223-0.239-1.215 0.133-1.677 0.478-4.554 0.478-2.875 0-3.339-0.346-4.553-0.478-6.085-0.664-11.741-0.238-12.221 0.24-0.239 0.239-0.239 1.197 0 1.436z" fill="#292f33" fill-rule="evenodd" class="color color-1" data-color="#292F33"></path></g>
</svg>
