<svg version="1.1" xmlns="http://www.w3.org/2000/svg" xmlns:xlink="http://www.w3.org/1999/xlink" x="0px" y="0px" viewBox="0 0 400 160.207" style="position: absolute;" xml:space="preserve">
<g>
	<path style="" d="M398.99,66.927c-0.523-1.843-6.854,0.524-16.338-4.744c-8.53-4.736-8.999-16.932-18.579-27.773
		C349.589,13.631,325.531,0,298.337,0c-26.823,0-50.589,13.265-65.136,33.562c-0.139,0.091-0.296,0.226-0.479,0.428
		c-5.535,6.062-10.275,20.816-29.773,20.29c-1.608,0-3.648,0-6.248,0c-19.498,0.526-24.241-14.229-29.773-20.29
		c-0.182-0.202-0.34-0.337-0.479-0.428C151.905,13.265,128.135,0,101.314,0C74.119,0,50.062,13.631,35.578,34.411
		c-9.581,10.841-10.047,23.037-18.58,27.773c-9.486,5.267-15.813,2.9-16.337,4.743c-0.524,1.845-1.585,23.452,0,24.768
		c1.583,1.316,12.857-5.722,18.447,4.215c9.759,17.353,14.162,28.795,18.208,32.307c14.63,19.412,37.872,31.99,63.997,31.99
		c39.223,0,71.928-28.346,78.769-65.621c2.966-11.11,6.586-21.762,19.744-22.333c13.156,0.571,16.777,11.222,19.745,22.333
		c6.837,37.275,39.546,65.621,78.767,65.621c26.126,0,49.368-12.578,63.998-31.99c4.045-3.512,8.449-14.954,18.208-32.307
		c5.59-9.937,16.863-2.897,18.446-4.215C400.573,90.378,399.515,68.772,398.99,66.927z M101.314,150.718
		c-38.936,0-70.613-31.68-70.613-70.614c0-38.941,31.678-70.62,70.613-70.62c38.941,0,70.62,31.678,70.62,70.62
		C171.933,119.041,140.255,150.718,101.314,150.718z M298.337,150.718c-38.94,0-70.619-31.68-70.619-70.614
		c0-38.941,31.679-70.62,70.619-70.62c38.937,0,70.615,31.678,70.615,70.62C368.952,119.041,337.274,150.718,298.337,150.718z" fill="#e15c47" class="color color-1" data-color="#E15C47"></path>
</g>
</svg>
