<svg version="1.1" xmlns="http://www.w3.org/2000/svg" xmlns:xlink="http://www.w3.org/1999/xlink" x="0px" y="0px" viewBox="0 0 400 145.765" enable-background="new 0 0 400 145.765" xml:space="preserve" style="position: absolute;">
<g>
	<path fill="#8ccdb0" d="M390.861,0.967c-18.58-0.244-37.171-1.271-55.733-0.878C298.07,0.875,261.289,5.3,226.513,18.412
		c-9.237,3.483-17.857,5.254-26.513,5.292c-8.656-0.037-17.275-1.809-26.515-5.292C138.71,5.3,101.93,0.875,64.872,0.088
		C46.31-0.304,27.719,0.723,9.14,0.967c-6.388,0.082-9.294,2.436-9.134,9.382c0.194,8.492,2.371,15.646,5.976,23.614
		c6.208,13.725,7.181,28.813,10.248,43.721c4.458,21.653,8.861,36.55,30.458,53.717c20.357,16.724,103.557,34.058,129.331-42.95
		c5.284-17.754,5.907-18.867,8.986-28.257c2.24-6.834,7.498-9.412,14.316-9.591c0.202-0.005,0.397,0.005,0.594,0.01v0.003
		c0.029,0,0.057-0.001,0.085-0.001c0.028,0,0.056,0.001,0.085,0.001v-0.003c0.197-0.004,0.392-0.015,0.594-0.01
		c6.819,0.179,12.076,2.757,14.317,9.591c3.078,9.391,3.701,10.503,8.985,28.257c25.772,77.008,108.974,59.674,129.33,42.95
		c21.597-17.167,26.001-32.063,30.458-53.717c3.067-14.908,4.041-29.996,10.249-43.721c3.604-7.968,5.78-15.123,5.975-23.614
		C400.154,3.402,397.247,1.049,390.861,0.967z M170.129,61.823c-1.609,18.629-21.545,94.774-98.521,71.792
		c-32.396-10.245-57.87-57.593-39.873-94.143C49.734,2.923,114.579,14.118,140.688,21.61
		C160.243,27.219,170.979,41.709,170.129,61.823z M328.391,133.615c-76.975,22.982-96.911-53.163-98.521-71.792
		c-0.848-20.114,9.886-34.604,29.441-40.213c26.109-7.493,90.954-18.687,108.952,17.862
		C386.261,76.022,360.788,123.37,328.391,133.615z" class="color color-2" data-color="#8CCDB0"></path>
</g>
<g>
	<circle fill="#ffffff" cx="15.505" cy="13.445" r="3.368" class="color color-1 primaryColor" data-color="#FFFFFF"></circle>
	<circle fill="#ffffff" cx="15.505" cy="24.153" r="3.368" class="color color-1 primaryColor" data-color="#FFFFFF"></circle>
	<circle fill="#ffffff" cx="384.324" cy="13.445" r="3.368" class="color color-1 primaryColor" data-color="#FFFFFF"></circle>
	<circle fill="#ffffff" cx="384.324" cy="24.153" r="3.368" class="color color-1 primaryColor" data-color="#FFFFFF"></circle>
</g>
</svg>
