<?xml version="1.0" encoding="utf-8"?>
<!-- Generator: Adobe Illustrator 22.0.1, SVG Export Plug-In . SVG Version: 6.00 Build 0)  -->
<svg version="1.1" id="Calque_1" xmlns="http://www.w3.org/2000/svg" xmlns:xlink="http://www.w3.org/1999/xlink" x="0px" y="0px"
	 viewBox="0 0 999.3 197" style="enable-background:new 0 0 999.3 197;" xml:space="preserve">
<style type="text/css">
	.st0{fill:#383938;}
	.st1{fill:#F18F90;}
	.st2{fill:none;stroke:#383938;stroke-width:3.7558;stroke-miterlimit:10;}
	.st3{fill:#454545;}
	.st4{fill:#FCDC91;}
	.st5{fill:#B2B9DE;}
</style>
<g>
	<path class="st0" d="M356.7,183L356.7,183c-6.6,0-12-5.4-12-12V37.7c0-6.6,5.4-12,12-12c6.6,0,12,5.4,12,12V171
		C368.7,177.6,363.3,183,356.7,183"/>
	<path class="st0" d="M607.4,44.6c-37.8,0-68.4,30.6-68.4,68.4s30.6,68.4,68.4,68.4c37.8,0,68.4-30.6,68.4-68.4
		S645.2,44.6,607.4,44.6 M607.4,159.5c-25.6,0-46.4-20.8-46.4-46.4c0-25.6,20.8-46.4,46.4-46.4c25.6,0,46.4,20.8,46.4,46.4
		C653.8,138.7,633.1,159.5,607.4,159.5"/>
	<path class="st1" d="M651.4,179.1L651.4,179.1c-6.6,0-12-5.4-12-12V57.9c0-6.6,5.4-12,12-12c6.6,0,12,5.4,12,12V167
		C663.4,173.7,658,179.1,651.4,179.1"/>
	<path class="st2" d="M651.4,179.1L651.4,179.1c-6.6,0-12-5.4-12-12V57.9c0-6.6,5.4-12,12-12c6.6,0,12,5.4,12,12V167
		C663.4,173.7,658,179.1,651.4,179.1z"/>
	<path class="st0" d="M26.8,114.6c0,37.8,30.6,68.4,68.4,68.4s68.4-30.6,68.4-68.4c0-37.8-30.6-68.4-68.4-68.4S26.8,76.8,26.8,114.6
		 M48.8,114.6c0-25.6,20.8-46.4,46.4-46.4c25.6,0,46.4,20.8,46.4,46.4c0,25.6-20.8,46.4-46.4,46.4C69.6,160.9,48.8,140.2,48.8,114.6
		"/>
	<path class="st0" d="M176.3,113.1c0,37.8,30.6,68.4,68.4,68.4c37.8,0,68.4-30.6,68.4-68.4c0-37.8-30.6-68.4-68.4-68.4
		C206.9,44.6,176.3,75.3,176.3,113.1 M198.3,113.1c0-25.6,20.8-46.4,46.4-46.4c25.6,0,46.4,20.8,46.4,46.4
		c0,25.6-20.8,46.4-46.4,46.4C219.1,159.5,198.3,138.7,198.3,113.1"/>
	<path class="st0" d="M522.3,56.4c-27.8-18.9-66.4-15.1-89.8,11.4c-22.6,25.6-22.6,64.8,0,90.4c23.4,26.5,62,30.3,89.8,11.4
		c5.7-3.8,6.2-12,1.4-16.8c-3.7-3.7-9.5-4.3-13.9-1.4c-18.7,12.7-44.6,10.2-60.5-7.5c-15.7-17.4-15.7-44.5,0-62
		c15.9-17.6,41.8-20.1,60.5-7.5c4.3,2.9,10.2,2.3,13.9-1.4C528.5,68.4,527.9,60.3,522.3,56.4"/>
	<path class="st0" d="M978.9,100.7c-6.3-33-36.3-57.6-71.6-55.4c-34.1,2.1-61.8,29.9-63.9,63.9c-2.2,35.3,22.4,65.3,55.4,71.6
		c6.7,1.3,12.9-4.1,12.9-10.9c0-5.2-3.7-9.8-8.8-10.8c-22.2-4.3-38.7-24.3-37.5-48c1.2-23.4,20.4-42.6,43.8-43.8
		c23.7-1.2,43.8,15.3,48,37.5c1,5.1,5.6,8.8,10.8,8.8C974.9,113.6,980.2,107.4,978.9,100.7"/>
	<path class="st3" d="M980.1,114.2L980.1,114.2c0,6.1-4.9,11-11,11H858c-6.1,0-11-4.9-11-11c0-6.1,4.9-11,11-11h120.7l0.2-2.4
		C978.9,100.7,980.5,107.6,980.1,114.2"/>
	<path class="st4" d="M836.5,113.6L836.5,113.6c0-6.6,5.4-12,12-12h126.3c6.6,0,12,5.4,12,12c0,6.6-5.4,12-12,12H848.6
		C841.9,125.6,836.5,120.2,836.5,113.6"/>
	<path class="st2" d="M836.5,113.6L836.5,113.6c0-6.6,5.4-12,12-12h126.3c6.6,0,12,5.4,12,12c0,6.6-5.4,12-12,12H848.6
		C841.9,125.6,836.5,120.2,836.5,113.6z"/>
	<path class="st5" d="M31.8,170.9L31.8,170.9c-6.6,0-12-5.4-12-12V25.6c0-6.6,5.4-12,12-12c6.6,0,12,5.4,12,12v133.3
		C43.8,165.6,38.4,170.9,31.8,170.9"/>
	<path class="st2" d="M31.8,170.9L31.8,170.9c-6.6,0-12-5.4-12-12V25.6c0-6.6,5.4-12,12-12c6.6,0,12,5.4,12,12v133.3
		C43.8,165.6,38.4,170.9,31.8,170.9z"/>
	<path class="st0" d="M404.1,68.2L404.1,68.2c0-6.6-5.4-12-12-12h-61.6c-6.6,0-12,5.4-12,12c0,6.6,5.4,12,12,12h61.6
		C398.7,80.2,404.1,74.8,404.1,68.2"/>
	<path class="st0" d="M762.2,177.4L762.2,177.4c-5.7,3.3-13.1,1.4-16.4-4.4l-56.3-97.3c-3.3-5.7-1.3-13.1,4.4-16.4
		c5.7-3.3,13.1-1.3,16.4,4.4l56.2,97.3C769.9,166.8,768,174.1,762.2,177.4"/>
	<path class="st0" d="M750.2,177.4L750.2,177.4c5.7,3.3,13.1,1.4,16.4-4.4l56.2-97.3c3.3-5.7,1.4-13.1-4.4-16.4
		c-5.7-3.3-13.1-1.3-16.4,4.4L745.8,161C742.5,166.8,744.5,174.1,750.2,177.4"/>
</g>
</svg>
