<svg version="1.1" xmlns="http://www.w3.org/2000/svg" xmlns:xlink="http://www.w3.org/1999/xlink" x="0px" y="0px" viewBox="0 0 128.169 89.034" enable-background="new 0 0 128.169 89.034" xml:space="preserve" style="position: absolute;">
<g>
	<g id="">
		<path fill="#fff9d9" d="M92.72,23.103c-11.196,1.867-10.263-3.732-21.459,3.731c-14.929,11.196-14.929,40.121,4.665,46.652
			c14.928,4.665,48.517-2.799,51.316-18.661C131.907,30.567,110.447,21.237,92.72,23.103" class="color color-3" data-color="#FFF9D9"></path>
	</g>
	<g id="">
		<path fill="#fff9d9" d="M42.803,2.81C20.877-10.485-14.111,31.033,10.147,42.229c6.531,2.799,44.794,2.649,48.517-2.799
			c9.564-13.995-7.463-33.588-16.951-37.229" class="color color-3" data-color="#FFF9D9"></path>
	</g>
</g>
<g>
	<g id="">
		<path fill="#d7ac44" d="M92.279,28.104c-9.809,1.634-8.992-3.271-18.801,3.268C60.4,41.18,60.4,66.52,77.565,72.241
			c13.079,4.088,42.505-2.452,44.957-16.347C126.61,34.64,107.809,26.467,92.279,28.104" class="color color-2" data-color="#D7AC44"></path>
	</g>
	<g id="">
		<path fill="#d7ac44" d="M40.146,5.288C21.174-6.216-9.098,29.706,11.891,39.394c5.651,2.422,38.756,2.292,41.977-2.422
			C62.142,24.862,47.41,7.911,39.202,4.761" class="color color-2" data-color="#D7AC44"></path>
	</g>
</g>
<g>
	<g id="">
		<path fill="#382b3f" d="M126.662,56.021c-6.15,41.795-69.175,46.099-66.852-2.367l0.187-0.021
			c0.672,8.906,5.266,17.189,14.431,20.61c14.753,5.19,48.586-1.082,51.944-16.834" class="color color-1" data-color="#382B3F"></path>
	</g>
	<g id="">
		<path fill="#382b3f" d="M60.491,30.368c4.665,49.448-66.223,34.999-59.809-2.558c-0.051,0.375-0.09,0.75-0.118,1.121
			c-0.401,5.479,1.91,10.404,8.184,13.298c6.531,2.799,44.794,2.649,48.517-2.799C59.323,36.418,60.305,33.365,60.491,30.368z" class="color color-1" data-color="#382B3F"></path>
	</g>
</g>
<g id="">
	<path d="M92.656,24.271c-4.352,0.625-8.272-0.459-12.539-0.255c-3.867,0.185-7.85,2.967-10.653,5.39
		c-6.027,5.208-8.794,13.473-9.108,21.219c-0.318,7.824,2.659,15.654,8.65,20.765c6.008,5.125,14.501,5.428,21.982,4.948
		c8.913-0.572,17.963-2.973,25.775-7.335c6.94-3.875,10.572-9.208,11.291-17.066c1.74-19.044-16.49-28.507-33.146-27.847
		c-0.731,0.039-1.46,0.096-2.188,0.172c-0.308,0.028-0.31,0.512,0,0.483c16.875-1.554,35.022,6.768,34.917,25.835
		c-0.102,18.306-21.74,24.05-36.649,25.274c-7.231,0.594-14.73,0.023-20.848-4.198c-7.057-4.868-9.588-13.961-9.257-22.109
		c0.316-7.785,3.826-15.396,9.72-20.489c3.74-3.231,8.327-5.041,13.198-4.304c3.036,0.459,5.946,0.419,8.984-0.017
		C93.091,24.692,92.96,24.227,92.656,24.271L92.656,24.271z"></path>
	<path d="M41.526,2.602C28.549-4.821,13.566,4.947,5.789,15.479c-6.584,8.916-8.791,24.684,5.25,27.64
		c7.432,1.565,15.482,1.277,23.021,1.045c6.651-0.204,14.945-0.146,21.136-3.002c6.315-2.914,5.59-12.602,3.9-18.035
		C56.566,14.994,49.977,7.44,42.743,3.106c-0.755-0.453-1.556-0.8-2.366-1.138c-0.287-0.12-0.411,0.348-0.128,0.466
		c7.498,3.136,13.402,10.333,16.983,17.411c3.351,6.623,4.761,18.728-4.012,21.515c-6.065,1.926-12.853,2.085-19.161,2.321
		c-6.727,0.251-13.535,0.17-20.227-0.612C8.024,42.39,2.888,39.43,1.173,33.498c-1.689-5.843,1.334-12.25,4.49-17.002
		C12.882,5.625,28.469-4.311,41.282,3.019C41.553,3.173,41.796,2.756,41.526,2.602L41.526,2.602z"></path>
	<path d="M60.346,54.374c-0.016,0,2.417,19.761,9.611,26.77c5.834,5.684,14.127,8.059,22.1,7.75
		c18.807-0.729,33.419-15.933,35.665-34.123c0.038-0.309-0.445-0.276-0.483,0.028c-2.253,18.25-16.648,32.563-35.182,33.711
		c-7.95,0.492-15.875-2.323-21.759-7.715c-7.232-6.628-9.485-16.42-9.469-26.42C60.83,54.374,60.347,54.374,60.346,54.374
		L60.346,54.374z"></path>
	<path d="M0.338,28.869c-2.759,17.697,11.786,31.47,28.585,33.541c8.095,0.998,16.406-0.485,22.831-5.747
		c7.743-6.342,9.363-16.914,8.577-26.329c-0.026-0.308-0.509-0.311-0.483,0c0.777,9.301-0.792,18.899-7.894,25.515
		c-5.721,5.329-13.973,6.867-21.529,6.248C13.434,60.704-1.993,46.935,0.804,28.997C0.851,28.692,0.386,28.562,0.338,28.869
		L0.338,28.869z"></path>
	<path d="M40.251,5.108c-11.53-6.535-24.752,2.36-31.409,11.838c-5.863,8.349-6.218,21.318,6.034,23.394
		c6.717,1.138,13.789,0.943,20.566,0.661c5.507-0.229,12.733-0.202,17.664-3.065c5.34-3.101,3.331-12.784,1.544-17.141
		C51.924,14.151,45.994,7.41,39.307,4.581c-0.245-0.104-0.458,0.256-0.211,0.36c6.095,2.579,10.852,8.145,14.065,13.767
		c3.338,5.839,5.397,17.339-2.85,19.95c-10.11,3.201-22.749,2.611-33.18,1.56c-5.088-0.513-9.682-2.534-11.591-7.684
		C3.62,27.352,6.391,21.42,9.203,17.157C15.446,7.692,28.931-0.828,40.04,5.468C40.275,5.602,40.485,5.241,40.251,5.108
		L40.251,5.108z"></path>
	<path d="M15.731,17.336c-0.837,0.664-2.428,5.23-0.385,4.938c0.756-0.108,1.365-0.956,1.614-1.608
		c0.312-0.814-0.163-1.465-0.925-1.729c-0.093-0.032-0.185,0.022-0.236,0.096c-0.558,0.799-2.048,0.554-2.629,1.386
		c-0.155,0.222,0.208,0.43,0.36,0.211c0.231-0.331,0.841-0.463,1.19-0.597c0.388-0.149,0.782-0.293,1.142-0.505
		c0.089-0.052,0.189-0.129,0.248-0.214c-0.031,0.044,0.414,0.424,0.451,0.485c0.219,0.362-0.027,0.866-0.216,1.179
		c-0.204,0.339-0.513,0.619-0.858,0.807c-0.608,0.332-0.708-0.212-0.667-0.698c0.084-1.029,0.338-2.766,1.206-3.454
		C16.238,17.464,15.94,17.171,15.731,17.336L15.731,17.336z"></path>
	<path d="M21.164,13.202c-0.346,0.54-0.703,1.207-0.585,1.874c0.117,0.662,0.578,1.097,1.126,1.443
		c0.562,0.355,1.104-0.148,1.196-0.689c0.114-0.674-0.192-1.403-0.71-1.835c-0.826-0.688-1.958-0.378-2.818,0.064
		c-0.24,0.123-0.028,0.483,0.211,0.36c0.657-0.337,1.452-0.603,2.151-0.232c0.456,0.241,0.722,0.762,0.766,1.261
		c0.026,0.288-0.044,0.809-0.444,0.75c-0.438-0.065-0.869-0.59-1.017-0.978c-0.236-0.618,0.164-1.305,0.485-1.806
		C21.67,13.185,21.309,12.976,21.164,13.202L21.164,13.202z"></path>
	<path d="M28.108,9.599c-3.625-0.14-2.164,5.604,0.89,4.201c0.492-0.226,1.165-0.746,1.154-1.348
		c-0.009-0.491-0.584-0.753-0.963-0.908c-1.384-0.565-3.11-0.622-4.589-0.628c-0.27-0.001-0.27,0.417,0,0.418
		c0.975,0.004,1.957,0.086,2.92,0.233c0.631,0.096,2.904,0.427,1.914,1.416c-2.504,2.498-4.707-3.095-1.327-2.965
		C28.377,10.027,28.376,9.609,28.108,9.599L28.108,9.599z"></path>
	<path d="M20.93,27.196c-0.522,0.936-0.533,1.938,0.216,2.749c0.378,0.409,1.287,0.937,1.826,0.519
		c0.687-0.533-0.004-1.745-0.538-2.105c-0.897-0.605-2.279-0.355-3.245-0.092c-0.259,0.071-0.149,0.474,0.111,0.403
		c0.676-0.185,1.361-0.282,2.062-0.221c0.371,0.033,0.744,0.16,1.033,0.397c0.254,0.208,0.604,0.973,0.333,1.282
		c-0.292,0.333-1.096-0.295-1.287-0.478c-0.651-0.626-0.558-1.514-0.152-2.242C21.422,27.172,21.061,26.961,20.93,27.196
		L20.93,27.196z"></path>
	<path d="M14.474,28.987c-1.586,1.211-3.646,6.673,0.161,5.514c1.614-0.492,1.565-1.761,0.297-2.674
		c-0.627-0.451-1.393-0.878-2.173-0.979c-0.889-0.114-1.739,0.354-2.61,0.443c-0.265,0.027-0.268,0.445,0,0.418
		c1.045-0.106,1.986-0.648,3.042-0.328c1.181,0.359,3.54,1.957,1.334,2.716c-3.148,1.084-1.047-3.827,0.161-4.75
		C14.896,29.187,14.688,28.823,14.474,28.987L14.474,28.987z"></path>
	<path d="M30.06,22.722c-0.817,0.769-1.467,2.161-0.808,3.23c0.728,1.182,1.798-0.508,2.069-1.111
		c0.038-0.084,0.042-0.185-0.032-0.253c-1.108-1.03-2.583-0.904-3.562,0.234c-0.174,0.204,0.12,0.5,0.296,0.296
		c0.825-0.96,2.017-1.12,2.97-0.234c-0.011-0.084-0.021-0.169-0.032-0.253c-0.225,0.5-1.1,2.017-1.487,0.806
		c-0.282-0.88,0.264-1.837,0.882-2.417C30.552,22.833,30.256,22.538,30.06,22.722L30.06,22.722z"></path>
	<path d="M37.524,25.987c-0.728,0.89-1.482,2.757-0.014,3.402c1.545,0.68,1.865-1.581,1.771-2.555
		c-0.016-0.166-0.163-0.25-0.314-0.18c-1.008,0.463-2.15,0.435-3.216,0.679c-0.263,0.061-0.151,0.463,0.111,0.403
		c1.107-0.254,2.267-0.24,3.315-0.722c-0.105-0.06-0.209-0.12-0.314-0.18c0.063,0.65,0,2.697-1.204,2.167
		c-1.147-0.505-0.36-2.082,0.161-2.719C37.989,26.076,37.695,25.779,37.524,25.987L37.524,25.987z"></path>
	<path d="M29.36,35.317c-0.598,0.71-1.046,1.54-0.914,2.492c0.089,0.645,0.559,1.208,1.136,1.482
		c0.498,0.236,1.086,0.23,1.516-0.136c0.589-0.5,0.422-1.473,0.244-2.113c-0.029-0.103-0.15-0.185-0.257-0.146
		c-0.938,0.339-1.738,0.962-2.616,1.421c-0.239,0.125-0.028,0.485,0.211,0.36c0.844-0.44,1.615-1.052,2.516-1.378
		c-0.086-0.049-0.171-0.098-0.257-0.146c0.148,0.529,0.31,1.27-0.136,1.706c-0.302,0.296-0.809,0.179-1.137,0.007
		c-1.35-0.71-0.775-2.346-0.011-3.254C29.829,35.408,29.534,35.111,29.36,35.317L29.36,35.317z"></path>
	<path d="M45.401,30.977c-0.216,1.316,0.289,2.815,1.295,3.705c0.999,0.883,1.802-0.011,2.085-1.017
		c0.241-0.854,0.257-2.043-0.922-1.918c-0.538,0.057-1.057,0.296-1.556,0.488c-0.407,0.157-1.315,0.626-1.719,0.283
		c-0.205-0.173-0.501,0.121-0.296,0.296c1.07,0.906,2.731-0.822,3.903-0.655c0.709,0.101,0.233,3.021-1.022,2.352
		c-1.07-0.571-1.547-2.318-1.366-3.422C45.847,30.825,45.445,30.712,45.401,30.977L45.401,30.977z"></path>
	<path d="M47.646,18.936c-1.693,0.605-1.429,2.768-0.471,3.922c1.214,1.464,3.001-0.354,3.344-1.658
		c0.617-2.345-5.41-0.686-6.316-0.638c-0.268,0.014-0.27,0.432,0,0.418c1.774-0.093,3.507-0.913,5.314-0.532
		c1.506,0.317-0.331,2.301-1.026,2.533c-1.533,0.511-2.381-3.052-0.733-3.641C48.009,19.249,47.9,18.845,47.646,18.936
		L47.646,18.936z"></path>
	<path d="M37.959,17.866c-0.435,1.007-0.794,2.619,0.703,2.846c1.095,0.166,2.44-0.484,3.051-1.39
		c0.637-0.946-0.311-2.05-1.34-1.861c-0.778,0.143-1.474,0.862-2.011,1.389c-0.221,0.217-1.58,1.529-1.475,1.656
		c-0.172-0.208-0.466,0.09-0.296,0.296c0.38,0.459,1.407-0.97,1.589-1.165c0.586-0.625,2.631-2.859,3.289-1.199
		c0.523,1.321-4.866,3.615-3.15-0.361C38.425,17.832,38.065,17.619,37.959,17.866L37.959,17.866z"></path>
	<path d="M22.768,19.371c0.046,1.293,0.801,2.239,1.971,2.745c0.1,0.043,0.229,0.035,0.286-0.075
		c0.521-1.011,0.75-2.307-0.728-2.393c-1.054-0.062-2.403,0.377-3.291,0.941c-0.227,0.144-0.017,0.505,0.211,0.36
		c0.668-0.424,1.516-0.661,2.285-0.814c0.421-0.083,0.953-0.153,1.343,0.068c0.534,0.303-0.005,1.285-0.18,1.626
		c0.095-0.025,0.19-0.05,0.286-0.075c-1.03-0.446-1.723-1.229-1.764-2.385C23.176,19.103,22.758,19.102,22.768,19.371L22.768,19.371
		z"></path>
	<path d="M37.309,8.976c-0.691,0.896-1.703,5.192,0.09,5.432c1.166,0.156,2.852-1.083,1.896-2.28
		c-0.422-0.529-1.153-1.104-1.84-1.208c-0.942-0.141-1.473,1.096-2.526,0.784c-0.259-0.077-0.369,0.327-0.111,0.403
		c1.193,0.353,2.028-1.087,3.109-0.554c0.63,0.311,1.679,1.088,1.004,1.858c-0.343,0.391-1.421,0.907-1.834,0.349
		c-0.488-0.658-0.18-1.926-0.036-2.644c0.104-0.521,0.206-1.41,0.543-1.845C37.767,9.062,37.473,8.763,37.309,8.976L37.309,8.976z"></path>
	<path d="M9.501,24.398c-0.412,0.669-0.75,1.636,0.144,2.067c0.606,0.292,1.374,0.221,2.019,0.132
		c0.584-0.08,0.68-0.927,0.446-1.367c-0.555-1.046-2.379-0.501-3.185-0.229c-0.253,0.086-0.145,0.49,0.111,0.403
		c0.666-0.226,2.194-0.757,2.712,0.037c0.142,0.216,0.057,0.489-0.06,0.693c-0.085,0.15,0.087,0.025-0.01,0.042
		c-0.07,0.012-0.14,0.021-0.209,0.029c-0.485,0.059-0.996,0.079-1.47-0.051c-0.821-0.224-0.458-1.024-0.138-1.545
		C10.004,24.379,9.642,24.169,9.501,24.398L9.501,24.398z"></path>
	<path d="M38.863,36.399c-0.028,0.209-0.189,0.434-0.251,0.64c-0.08,0.269-0.046,0.549,0.025,0.815
		c0.024,0.089,0.109,0.154,0.202,0.153c0.452-0.002,1.493,0.11,1.834-0.313c0.273-0.339-0.194-0.626-0.452-0.755
		c-0.567-0.284-1.203-0.448-1.819-0.586c-0.546-0.122-1.159-0.253-1.719-0.156c-0.265,0.046-0.152,0.449,0.111,0.403
		c0.836-0.146,1.881,0.215,2.663,0.479c0.183,0.062,0.81,0.221,0.882,0.434c-0.037-0.107,0.071-0.1-0.057-0.052
		c-0.103,0.039-0.215,0.055-0.323,0.073c-0.368,0.06-0.751,0.055-1.122,0.056c0.067,0.051,0.134,0.103,0.202,0.153
		c-0.146-0.545,0.174-0.851,0.241-1.344C39.316,36.132,38.898,36.136,38.863,36.399L38.863,36.399z"></path>
	<path d="M80.252,43.683c-0.327,0.204-0.736,0.28-1.038,0.522c-0.395,0.317-0.454,0.813-0.465,1.291
		c-0.002,0.086,0.064,0.186,0.153,0.202c0.992,0.175,2.166-0.035,2.706-0.98c0.547-0.958-0.361-1.719-1.195-1.99
		c-0.088-0.028-0.191,0.018-0.236,0.096c-0.251,0.439-0.68,0.727-0.932,1.167c-0.134,0.234,0.227,0.445,0.36,0.211
		c0.251-0.438,0.681-0.727,0.932-1.167c-0.079,0.032-0.157,0.064-0.236,0.096c0.654,0.212,1.325,0.713,0.903,1.451
		c-0.417,0.729-1.454,0.843-2.191,0.712c0.051,0.067,0.102,0.134,0.153,0.202c0.009-0.42,0.046-0.825,0.441-1.049
		c0.275-0.156,0.583-0.233,0.855-0.403C80.691,43.901,80.481,43.539,80.252,43.683L80.252,43.683z"></path>
	<path d="M85.543,36.993c-0.346,0.54-0.704,1.207-0.586,1.874c0.117,0.662,0.578,1.097,1.126,1.443
		c0.562,0.355,1.105-0.147,1.196-0.688c0.115-0.675-0.191-1.404-0.709-1.835c-0.826-0.688-1.959-0.378-2.819,0.064
		c-0.24,0.123-0.028,0.483,0.211,0.36c0.657-0.337,1.452-0.603,2.152-0.233c0.456,0.241,0.722,0.762,0.766,1.261
		c0.025,0.288-0.045,0.809-0.445,0.75c-0.437-0.065-0.869-0.589-1.017-0.978c-0.236-0.618,0.165-1.305,0.486-1.807
		C86.049,36.977,85.688,36.767,85.543,36.993L85.543,36.993z"></path>
	<path d="M92.487,33.391c-1.325-0.057-2.275,0.763-2.189,2.124c0.074,1.162,0.944,2.328,2.177,2.323
		c0.991-0.003,3.009-1.383,2.054-2.5c-0.799-0.935-2.506-1.23-3.675-1.248c-0.27-0.004-0.269,0.414,0,0.418
		c0.918,0.013,1.908,0.245,2.733,0.644c0.419,0.202,0.929,0.562,0.695,1.087c-0.263,0.588-1.033,1.039-1.638,1.165
		c-1.039,0.215-1.742-0.859-1.909-1.732c-0.226-1.187,0.62-1.912,1.752-1.863C92.756,33.82,92.755,33.402,92.487,33.391
		L92.487,33.391z"></path>
	<path d="M85.309,50.988c-0.522,0.936-0.533,1.938,0.216,2.749c0.378,0.409,1.287,0.937,1.826,0.519
		c0.687-0.533-0.004-1.745-0.538-2.105c-0.898-0.605-2.279-0.355-3.245-0.092c-0.26,0.071-0.149,0.474,0.111,0.403
		c0.676-0.185,1.361-0.282,2.062-0.22c0.371,0.032,0.744,0.16,1.033,0.397c0.255,0.208,0.605,0.973,0.333,1.282
		c-0.292,0.333-1.096-0.295-1.287-0.479c-0.651-0.626-0.557-1.514-0.151-2.242C85.801,50.964,85.44,50.753,85.309,50.988
		L85.309,50.988z"></path>
	<path d="M78.853,52.779c-1.586,1.212-3.646,6.673,0.161,5.514c1.614-0.492,1.564-1.762,0.296-2.674
		c-0.627-0.451-1.393-0.878-2.173-0.979c-0.889-0.114-1.739,0.354-2.61,0.442c-0.266,0.027-0.268,0.445,0,0.418
		c1.045-0.106,1.987-0.647,3.042-0.327c1.181,0.359,3.539,1.957,1.334,2.716c-3.148,1.084-1.046-3.828,0.161-4.75
		C79.274,52.979,79.067,52.615,78.853,52.779L78.853,52.779z"></path>
	<path d="M94.438,46.514c-0.817,0.769-1.467,2.161-0.809,3.23c0.728,1.182,1.798-0.508,2.069-1.111
		c0.038-0.084,0.042-0.185-0.032-0.253c-1.108-1.03-2.584-0.904-3.562,0.233c-0.174,0.204,0.12,0.5,0.296,0.296
		c0.825-0.96,2.017-1.12,2.97-0.233c-0.011-0.084-0.021-0.169-0.032-0.253c-0.225,0.5-1.1,2.017-1.487,0.806
		c-0.281-0.88,0.264-1.837,0.882-2.418C94.931,46.625,94.635,46.33,94.438,46.514L94.438,46.514z"></path>
	<path d="M101.902,49.779c-0.728,0.89-1.481,2.757-0.014,3.402c1.545,0.68,1.865-1.581,1.771-2.555
		c-0.016-0.166-0.163-0.25-0.314-0.18c-1.008,0.463-2.15,0.435-3.216,0.678c-0.263,0.06-0.151,0.463,0.111,0.403
		c1.108-0.254,2.267-0.239,3.315-0.721c-0.105-0.06-0.209-0.12-0.314-0.18c0.063,0.65,0,2.697-1.203,2.167
		c-1.148-0.505-0.361-2.082,0.16-2.719C102.367,49.868,102.073,49.571,101.902,49.779L101.902,49.779z"></path>
	<path d="M93.738,59.109c-0.598,0.711-1.046,1.541-0.914,2.493c0.089,0.645,0.56,1.208,1.137,1.482
		c0.498,0.236,1.086,0.23,1.516-0.136c0.589-0.5,0.422-1.473,0.244-2.113c-0.029-0.103-0.15-0.185-0.257-0.146
		c-0.938,0.34-1.737,0.963-2.616,1.42c-0.239,0.124-0.028,0.485,0.211,0.36c0.845-0.439,1.615-1.051,2.516-1.377
		c-0.086-0.049-0.171-0.098-0.257-0.146c0.148,0.529,0.31,1.27-0.136,1.706c-0.302,0.296-0.809,0.18-1.137,0.007
		c-1.35-0.71-0.776-2.346-0.011-3.254C94.206,59.2,93.912,58.903,93.738,59.109L93.738,59.109z"></path>
	<path d="M109.779,54.77c-0.216,1.316,0.288,2.815,1.295,3.705c0.999,0.882,1.802-0.011,2.086-1.017
		c0.241-0.854,0.258-2.044-0.921-1.919c-0.538,0.057-1.057,0.296-1.556,0.488c-0.408,0.157-1.315,0.626-1.72,0.283
		c-0.205-0.173-0.501,0.122-0.296,0.296c1.07,0.906,2.731-0.822,3.904-0.655c0.709,0.101,0.232,3.021-1.022,2.352
		c-1.07-0.57-1.547-2.317-1.366-3.422C110.226,54.617,109.823,54.504,109.779,54.77L109.779,54.77z"></path>
	<path d="M112.025,42.727c-1.692,0.606-1.43,2.768-0.472,3.922c1.214,1.464,3.001-0.355,3.344-1.659
		c0.617-2.345-5.41-0.685-6.316-0.637c-0.268,0.014-0.27,0.432,0,0.418c1.774-0.093,3.506-0.913,5.314-0.533
		c1.506,0.317-0.331,2.301-1.026,2.533c-1.535,0.511-2.379-3.052-0.732-3.641C112.388,43.04,112.279,42.636,112.025,42.727
		L112.025,42.727z"></path>
	<path d="M102.337,41.658c-0.393,0.898-0.803,2.311,0.391,2.774c0.888,0.344,2.085-0.158,2.783-0.703
		c0.809-0.633,1.036-1.446,0.312-2.23c-0.47-0.509-1.124-0.521-1.694-0.195c-0.307,0.175-0.565,0.441-0.806,0.694
		c-0.112,0.117-0.22,0.238-0.331,0.356c-0.036,0.038-0.072,0.074-0.109,0.109c-0.145,0.142-0.057-0.023,0.047,0.127
		c-0.152-0.219-0.515-0.011-0.36,0.211c0.177,0.254,0.421,0.127,0.608-0.042c0.399-0.361,0.701-0.797,1.161-1.094
		c0.565-0.366,1.272-0.053,1.508,0.561c0.137,0.355-0.107,0.708-0.342,0.954c-0.554,0.58-1.455,0.941-2.252,0.926
		c-1.287-0.024-0.892-1.468-0.556-2.237C102.804,41.625,102.444,41.412,102.337,41.658L102.337,41.658z"></path>
	<path d="M87.146,43.163c0.046,1.293,0.8,2.239,1.969,2.746c0.1,0.043,0.229,0.035,0.286-0.075c0.52-1.011,0.75-2.307-0.728-2.394
		c-1.053-0.062-2.403,0.377-3.29,0.942c-0.227,0.144-0.017,0.506,0.211,0.36c0.668-0.425,1.515-0.662,2.284-0.814
		c0.421-0.083,0.953-0.154,1.343,0.068c0.533,0.303-0.005,1.285-0.181,1.626c0.095-0.025,0.19-0.05,0.286-0.075
		c-1.03-0.447-1.721-1.23-1.762-2.386C87.555,42.894,87.137,42.893,87.146,43.163L87.146,43.163z"></path>
	<path d="M101.67,34.151c-0.498,0.584-0.714,1.676-0.807,2.407c-0.12,0.947,0.156,1.865,1.283,1.672
		c0.614-0.105,1.514-0.516,1.746-1.142c0.226-0.608-0.13-1.137-0.564-1.544c-0.394-0.371-1.112-0.895-1.683-0.826
		c-0.87,0.106-1.366,1.094-2.338,0.78c-0.257-0.083-0.367,0.321-0.111,0.403c0.479,0.154,0.895,0.067,1.341-0.144
		c0.513-0.243,0.94-0.775,1.534-0.524c0.537,0.227,1.065,0.595,1.374,1.096c0.509,0.828-0.803,1.355-1.41,1.498
		c-1.454,0.342-0.534-2.834-0.069-3.379C102.14,34.243,101.845,33.946,101.67,34.151L101.67,34.151z"></path>
	<path d="M73.879,48.189c-0.495,0.804-0.709,1.813,0.388,2.159c0.606,0.191,1.33,0.127,1.948,0.014
		c0.145-0.027,0.213-0.255,0.092-0.35c-0.402-0.311-0.752-0.688-1.18-0.966c-0.523-0.341-1.171-0.335-1.767-0.261
		c-0.264,0.033-0.267,0.451,0,0.418c0.545-0.068,1.067-0.078,1.556,0.204c0.404,0.233,0.727,0.616,1.095,0.901
		c0.031-0.117,0.062-0.233,0.092-0.35c-0.441,0.082-0.902,0.101-1.349,0.06c-0.289-0.026-0.652-0.105-0.826-0.36
		c-0.254-0.372,0.122-0.95,0.312-1.259C74.381,48.17,74.02,47.96,73.879,48.189L73.879,48.189z"></path>
	<path d="M103.241,60.191c-0.028,0.209-0.189,0.434-0.25,0.64c-0.08,0.27-0.046,0.55,0.025,0.815
		c0.037,0.139,0.188,0.182,0.307,0.125c0.49-0.234,1.38-0.563,1.594-1.136c0.145-0.388-0.239-0.601-0.553-0.688
		c-1.01-0.28-2.284-0.153-3.301,0.042c-0.264,0.051-0.152,0.454,0.111,0.403c0.841-0.162,1.745-0.191,2.597-0.121
		c0.098,0.008,0.787,0.086,0.757,0.215c-0.035,0.149-0.276,0.287-0.387,0.364c-0.321,0.222-0.678,0.392-1.029,0.56
		c0.103,0.042,0.205,0.083,0.307,0.125c-0.146-0.544,0.174-0.85,0.24-1.344C103.694,59.924,103.276,59.928,103.241,60.191
		L103.241,60.191z"></path>
	<path d="M92.223,26.499c-4,0.559-7.785-0.625-11.691-0.129c-3.252,0.413-6.449,2.711-8.834,4.816
		c-5.209,4.597-7.53,11.838-7.776,18.585c-0.25,6.837,2.423,13.608,7.645,18.058c5.489,4.677,13.417,4.75,20.203,4.202
		c7.734-0.625,15.562-2.817,22.268-6.755c6.438-3.78,9.059-9.048,9.265-16.376c0.466-16.62-16.863-23.685-31.022-22.408
		c-0.27,0.024-0.272,0.447,0,0.423c14.521-1.31,30.233,5.602,30.6,21.985c0.361,16.14-17.99,21.382-31.11,22.708
		c-6.18,0.625-12.717,0.327-18.188-2.863c-6.588-3.842-9.22-11.754-9.237-18.973c-0.018-7.162,3.091-14.261,8.449-18.989
		c3.205-2.828,7.325-4.504,11.556-3.877c2.705,0.401,5.278,0.38,7.985,0.002C92.604,26.87,92.489,26.462,92.223,26.499
		L92.223,26.499z"></path>
</g>
</svg>
