<?xml version="1.0" encoding="utf-8"?>
<!-- Generator: Adobe Illustrator 22.0.1, SVG Export Plug-In . SVG Version: 6.00 Build 0)  -->
<svg version="1.1" id="Calque_1" xmlns="http://www.w3.org/2000/svg" xmlns:xlink="http://www.w3.org/1999/xlink" x="0px" y="0px"
	 viewBox="0 0 520 748" style="enable-background:new 0 0 520 748;" xml:space="preserve">
<style type="text/css">
	.st0{enable-background:new    ;}
	.st1{clip-path:url(#SVGID_2_);enable-background:new    ;}
	.st2{fill:#FBA9AE;}
	.st3{fill:#FBA6AB;}
	.st4{clip-path:url(#SVGID_4_);enable-background:new    ;}
	.st5{clip-path:url(#SVGID_6_);enable-background:new    ;}
	.st6{fill:#FBA9AD;}
	.st7{fill:#FBA8AD;}
	.st8{clip-path:url(#SVGID_8_);enable-background:new    ;}
	.st9{clip-path:url(#SVGID_10_);enable-background:new    ;}
	.st10{fill:#FBA5A9;}
	.st11{clip-path:url(#SVGID_12_);enable-background:new    ;}
	.st12{clip-path:url(#SVGID_14_);enable-background:new    ;}
	.st13{clip-path:url(#SVGID_16_);enable-background:new    ;}
	.st14{clip-path:url(#SVGID_18_);enable-background:new    ;}
	.st15{clip-path:url(#SVGID_20_);enable-background:new    ;}
	.st16{fill:#F7545D;}
	.st17{clip-path:url(#SVGID_22_);enable-background:new    ;}
	.st18{clip-path:url(#SVGID_24_);enable-background:new    ;}
	.st19{clip-path:url(#SVGID_26_);enable-background:new    ;}
	.st20{fill:#FBA5AA;}
	.st21{clip-path:url(#SVGID_28_);enable-background:new    ;}
</style>
<g>
	<g>
		<g>
			<g class="st0">
				<g class="st0">
					<defs>
						<path id="SVGID_1_" class="st0" d="M305.6,547.1L271,528.3c-3.1-1.7-5.3-5-5.7-9.2l34.6,18.8
							C300.3,542.1,302.5,545.4,305.6,547.1z"/>
					</defs>
					<clipPath id="SVGID_2_">
						<use xlink:href="#SVGID_1_"  style="overflow:visible;"/>
					</clipPath>
					<g class="st1">
						<path class="st2" d="M305.6,547.1L271,528.3c-3.1-1.7-5.3-5-5.7-9.2l34.6,18.8C300.3,542.1,302.5,545.4,305.6,547.1"/>
					</g>
				</g>
				<g>
					<polygon class="st3" points="299.9,538 265.3,519.2 256.4,428.8 290.9,447.6 					"/>
				</g>
				<g class="st0">
					<defs>
						<path id="SVGID_3_" class="st0" d="M250.9,419.6l34.6,18.8c2.9,1.6,5,4.6,5.5,9.2l-34.6-18.8
							C255.9,424.2,253.8,421.2,250.9,419.6z"/>
					</defs>
					<clipPath id="SVGID_4_">
						<use xlink:href="#SVGID_3_"  style="overflow:visible;"/>
					</clipPath>
					<g class="st4">
						<path class="st2" d="M290.9,447.6l-34.6-18.8c-0.5-4.6-2.6-7.6-5.5-9.2l34.6,18.8C288.3,440,290.5,443,290.9,447.6"/>
					</g>
				</g>
				<g class="st0">
					<defs>
						<path id="SVGID_5_" class="st0" d="M335.1,333.4l-34.6-18.8c2.1,1.1,4.5,1.5,7,1.1c5.8-0.8,11.7-5.7,12.5-13.9l34.6,18.8
							c-0.8,8.2-6.6,13.1-12.5,13.9C339.6,334.9,337.2,334.5,335.1,333.4z"/>
					</defs>
					<clipPath id="SVGID_6_">
						<use xlink:href="#SVGID_5_"  style="overflow:visible;"/>
					</clipPath>
					<g class="st5">
						<path class="st2" d="M335.1,333.4l-34.6-18.8c0.5,0.3,1.1,0.5,1.6,0.7l34.6,18.8C336.2,333.9,335.6,333.7,335.1,333.4"/>
						<path class="st6" d="M336.7,334.1l-34.6-18.8c1.2,0.4,2.5,0.6,3.8,0.6l34.6,18.8C339.2,334.7,337.9,334.5,336.7,334.1"/>
						<path class="st6" d="M340.5,334.7l-34.6-18.8c0.5,0,1-0.1,1.5-0.1c1.1-0.2,2.2-0.4,3.2-0.9l34.6,18.8c-1,0.4-2.1,0.7-3.2,0.9
							C341.5,334.6,341,334.7,340.5,334.7"/>
						<path class="st7" d="M345.3,333.7l-34.6-18.8c2.7-1.1,5.1-3,6.8-5.7l34.6,18.8C350.4,330.7,347.9,332.6,345.3,333.7"/>
						<path class="st6" d="M352.1,328l-34.6-18.8c0.8-1.3,1.5-2.7,1.9-4.3l34.6,18.8C353.5,325.2,352.9,326.7,352.1,328"/>
						<path class="st6" d="M354,323.6l-34.6-18.8c0.3-0.9,0.4-1.9,0.5-3l34.6,18.8C354.4,321.7,354.2,322.7,354,323.6"/>
					</g>
				</g>
				<g class="st0">
					<defs>
						<path id="SVGID_7_" class="st0" d="M387.3,86.6l34.6,18.8c-1.9-1-4.2-1.5-6.7-1.1l-34.6-18.8
							C383.1,85.1,385.4,85.6,387.3,86.6z"/>
					</defs>
					<clipPath id="SVGID_8_">
						<use xlink:href="#SVGID_7_"  style="overflow:visible;"/>
					</clipPath>
					<g class="st8">
						<path class="st6" d="M415.3,104.3l-34.6-18.8c0.5-0.1,1-0.1,1.4-0.1l34.6,18.8C416.2,104.2,415.7,104.2,415.3,104.3"/>
						<path class="st6" d="M416.7,104.2l-34.6-18.8c1.3,0,2.5,0.2,3.6,0.5l34.6,18.8C419.2,104.4,417.9,104.2,416.7,104.2"/>
						<path class="st2" d="M420.3,104.7l-34.6-18.8c0.6,0.2,1.1,0.4,1.6,0.7l34.6,18.8C421.4,105.2,420.9,104.9,420.3,104.7"/>
					</g>
				</g>
				<g class="st0">
					<defs>
						<path id="SVGID_9_" class="st0" d="M174.2,565.6l-34.6-18.8c-3.1-1.7-5.3-5-5.7-9.1l34.6,18.8
							C168.9,560.6,171.1,563.9,174.2,565.6z"/>
					</defs>
					<clipPath id="SVGID_10_">
						<use xlink:href="#SVGID_9_"  style="overflow:visible;"/>
					</clipPath>
					<g class="st9">
						<path class="st2" d="M174.2,565.6l-34.6-18.8c-3.1-1.7-5.3-5-5.7-9.1l34.6,18.8C168.9,560.6,171.1,563.9,174.2,565.6"/>
					</g>
				</g>
				<g>
					<polygon class="st3" points="385.9,108.4 351.3,89.6 380.7,85.5 415.3,104.3 					"/>
				</g>
				<g>
					<polygon class="st10" points="354.5,320.7 319.9,301.9 338.9,103.5 373.5,122.3 					"/>
				</g>
				<g class="st0">
					<defs>
						<path id="SVGID_11_" class="st0" d="M373.5,122.3l-34.6-18.8c0.7-7,6-13,12.5-13.9l34.6,18.8
							C379.5,109.3,374.1,115.3,373.5,122.3z"/>
					</defs>
					<clipPath id="SVGID_12_">
						<use xlink:href="#SVGID_11_"  style="overflow:visible;"/>
					</clipPath>
					<g class="st11">
						<path class="st6" d="M373.5,122.3l-34.6-18.8c0.1-0.9,0.2-1.8,0.5-2.6l34.6,18.8C373.7,120.5,373.6,121.4,373.5,122.3"/>
						<path class="st6" d="M374,119.7l-34.6-18.8c0.4-1.6,1.1-3.1,2-4.5l34.6,18.8C375.1,116.6,374.4,118.1,374,119.7"/>
						<path class="st7" d="M375.9,115.2l-34.6-18.8c1.7-2.7,4.2-4.8,7-6l34.6,18.8C380.1,110.4,377.6,112.5,375.9,115.2"/>
						<path class="st6" d="M383,109.2l-34.6-18.8c1-0.4,1.9-0.7,3-0.8l34.6,18.8C384.9,108.6,383.9,108.8,383,109.2"/>
					</g>
				</g>
				<g class="st0">
					<defs>
						<path id="SVGID_13_" class="st0" d="M212.5,349.1l-34.6-18.8c2.1,1.1,4.5,1.5,6.9,1.1c5.9-0.8,11.7-5.7,12.5-14l34.6,18.8
							c-0.7,8.2-6.6,13.1-12.5,14C217,350.6,214.6,350.3,212.5,349.1z"/>
					</defs>
					<clipPath id="SVGID_14_">
						<use xlink:href="#SVGID_13_"  style="overflow:visible;"/>
					</clipPath>
					<g class="st12">
						<path class="st2" d="M212.5,349.1l-34.6-18.8c0.5,0.3,1.1,0.5,1.6,0.7l34.6,18.8C213.6,349.6,213,349.4,212.5,349.1"/>
						<path class="st6" d="M214.1,349.8L179.6,331c1.2,0.4,2.5,0.6,3.8,0.6l34.6,18.8C216.6,350.4,215.4,350.2,214.1,349.8"/>
						<path class="st6" d="M218,350.4l-34.6-18.8c0.5,0,1-0.1,1.5-0.1c1.1-0.2,2.2-0.4,3.2-0.9l34.6,18.8c-1,0.4-2.1,0.7-3.2,0.9
							C219,350.3,218.5,350.4,218,350.4"/>
						<path class="st7" d="M222.7,349.4l-34.6-18.8c2.7-1.1,5.1-3,6.9-5.7l34.6,18.8C227.8,346.4,225.3,348.3,222.7,349.4"/>
						<path class="st6" d="M229.5,343.7l-34.6-18.8c0.8-1.3,1.5-2.7,1.9-4.3l34.6,18.8C231,341,230.3,342.4,229.5,343.7"/>
						<path class="st6" d="M231.4,339.4l-34.6-18.8c0.3-1,0.4-2,0.5-3.1l34.6,18.8C231.9,337.4,231.7,338.4,231.4,339.4"/>
					</g>
				</g>
				<g class="st0">
					<defs>
						<path id="SVGID_15_" class="st0" d="M271.7,102.9l34.6,18.8c-1.9-1.1-4.2-1.5-6.7-1.2L265,101.7
							C267.5,101.4,269.8,101.8,271.7,102.9z"/>
					</defs>
					<clipPath id="SVGID_16_">
						<use xlink:href="#SVGID_15_"  style="overflow:visible;"/>
					</clipPath>
					<g class="st13">
						<path class="st6" d="M299.6,120.6L265,101.7c0.5-0.1,0.9-0.1,1.4-0.1l34.6,18.8C300.6,120.5,300.1,120.5,299.6,120.6"/>
						<path class="st6" d="M301,120.4l-34.6-18.8c1.3,0,2.5,0.2,3.6,0.5l34.6,18.8C303.5,120.6,302.3,120.4,301,120.4"/>
						<path class="st2" d="M304.7,121l-34.6-18.8c0.6,0.2,1.1,0.4,1.7,0.7l34.6,18.8C305.8,121.4,305.2,121.2,304.7,121"/>
					</g>
				</g>
				<g>
					<polygon class="st3" points="262.1,125.8 227.5,107 265,101.7 299.6,120.6 					"/>
				</g>
				<g>
					<polygon class="st10" points="231.9,336.3 197.4,317.5 215,121 249.6,139.8 					"/>
				</g>
				<g class="st0">
					<defs>
						<path id="SVGID_17_" class="st0" d="M249.6,139.8L215,121c0.6-7,6-13.1,12.5-14l34.6,18.8
							C255.6,126.7,250.2,132.8,249.6,139.8z"/>
					</defs>
					<clipPath id="SVGID_18_">
						<use xlink:href="#SVGID_17_"  style="overflow:visible;"/>
					</clipPath>
					<g class="st14">
						<path class="st6" d="M249.6,139.8L215,121c0.1-0.9,0.2-1.8,0.5-2.7l34.6,18.8C249.8,138,249.7,138.9,249.6,139.8"/>
						<path class="st6" d="M250.1,137.1l-34.6-18.8c0.4-1.6,1.1-3.1,2-4.5l34.6,18.8C251.2,134,250.5,135.5,250.1,137.1"/>
						<path class="st7" d="M252,132.6l-34.6-18.8c1.7-2.7,4.2-4.9,7-6l34.6,18.8C256.2,127.8,253.8,129.9,252,132.6"/>
						<path class="st6" d="M259.1,126.6l-34.6-18.8c1-0.4,1.9-0.7,3-0.8l34.6,18.8C261,126,260,126.3,259.1,126.6"/>
					</g>
				</g>
				<g class="st0">
					<defs>
						<path id="SVGID_19_" class="st0" d="M147.8,120.3l34.6,18.8c-1.9-1.1-4.2-1.5-6.7-1.2l-34.6-18.8
							C143.6,118.8,145.9,119.2,147.8,120.3z"/>
					</defs>
					<clipPath id="SVGID_20_">
						<use xlink:href="#SVGID_19_"  style="overflow:visible;"/>
					</clipPath>
					<g class="st15">
						<path class="st6" d="M175.8,138l-34.6-18.8c0.5-0.1,0.9-0.1,1.4-0.1l34.6,18.8C176.7,137.9,176.2,137.9,175.8,138"/>
						<path class="st6" d="M177.2,137.9L142.6,119c1.3,0,2.5,0.2,3.6,0.5l34.6,18.8C179.7,138,178.4,137.8,177.2,137.9"/>
						<path class="st2" d="M180.8,138.4l-34.6-18.8c0.6,0.2,1.1,0.4,1.7,0.7l34.6,18.8C181.9,138.8,181.4,138.6,180.8,138.4"/>
					</g>
				</g>
				<g>
					<polygon class="st3" points="140.1,143 105.5,124.2 141.2,119.2 175.8,138 					"/>
				</g>
				<g>
					<polygon class="st3" points="168.5,556.5 133.9,537.7 93.1,140.9 127.7,159.7 					"/>
				</g>
				<g>
					<path class="st16" d="M415.3,104.3c7.5-1,13.2,5.1,12.4,13.2L385.3,526c-0.7,6.9-6.1,12.9-12.5,13.8l-60.6,8.5
						c-6.4,0.9-11.7-3.6-12.4-10.3l-8.9-90.4c-0.8-7.9-6.6-11.1-12.4-10.3c-5.8,0.8-11.6,5.7-12.5,13.8l-9.3,93
						c-0.7,7-6.1,12.9-12.5,13.8l-63.4,8.9c-6.4,0.9-11.7-3.5-12.4-10.3l-40.8-396.8c-0.8-7.9,5-15.7,12.5-16.7l35.6-5
						c6.4-0.9,11.7,3.6,12.4,10.3L207.1,340c0.8,7.9,6.6,11.1,12.4,10.3c5.9-0.8,11.7-5.7,12.5-14l17.6-196.5c0.6-7,6-13.1,12.5-14
						l37.6-5.3c6.4-0.9,11.8,3.6,12.4,10.4l17.6,193.1c0.7,8,6.6,11.2,12.4,10.4c5.8-0.8,11.7-5.7,12.5-13.9l19-198.4
						c0.7-7,6-13,12.5-13.9L415.3,104.3z"/>
				</g>
				<g class="st0">
					<defs>
						<path id="SVGID_21_" class="st0" d="M127.7,159.7l-34.6-18.8c-0.8-7.9,5-15.7,12.5-16.7l34.6,18.8
							C132.7,144,126.9,151.8,127.7,159.7z"/>
					</defs>
					<clipPath id="SVGID_22_">
						<use xlink:href="#SVGID_21_"  style="overflow:visible;"/>
					</clipPath>
					<g class="st17">
						<path class="st2" d="M127.7,159.7l-34.6-18.8c0-0.5-0.1-0.9-0.1-1.4l34.6,18.8C127.6,158.8,127.6,159.3,127.7,159.7"/>
						<path class="st6" d="M127.6,158.3L93,139.5c0-1.4,0.2-2.8,0.5-4.1l34.6,18.8C127.8,155.6,127.6,156.9,127.6,158.3"/>
						<path class="st6" d="M128.1,154.2l-34.6-18.8c0.4-1.6,1.1-3.1,2-4.5l34.6,18.8C129.2,151.2,128.6,152.7,128.1,154.2"/>
						<path class="st7" d="M130.1,149.8L95.5,131c1.7-2.7,4.2-4.8,7-6l34.6,18.8C134.3,144.9,131.8,147.1,130.1,149.8"/>
						<path class="st6" d="M137.1,143.8L102.6,125c1-0.4,2-0.7,3-0.8l34.6,18.8C139.1,143.1,138.1,143.4,137.1,143.8"/>
					</g>
				</g>
			</g>
		</g>
	</g>
	<g>
		<g>
			<g class="st0">
				<g class="st0">
					<defs>
						<path id="SVGID_23_" class="st0" d="M381.9,564.4l33.5,18.2c-0.5-0.3-1.1-0.4-1.7-0.3l-33.5-18.2
							C380.8,564,381.4,564.1,381.9,564.4z"/>
					</defs>
					<clipPath id="SVGID_24_">
						<use xlink:href="#SVGID_23_"  style="overflow:visible;"/>
					</clipPath>
					<g class="st18">
						<path class="st6" d="M413.6,582.3l-33.5-18.2c0.1,0,0.2,0,0.4,0l33.5,18.2C413.8,582.3,413.7,582.3,413.6,582.3"/>
						<path class="st6" d="M414,582.3l-33.5-18.2c0.3,0,0.6,0,0.9,0.1l33.5,18.2C414.6,582.3,414.3,582.3,414,582.3"/>
						<path class="st2" d="M414.9,582.4l-33.5-18.2c0.1,0.1,0.3,0.1,0.4,0.2l33.5,18.2C415.2,582.5,415.1,582.5,414.9,582.4"/>
					</g>
				</g>
				<g class="st0">
					<defs>
						<path id="SVGID_25_" class="st0" d="M141.2,669.4l-33.5-18.2c-0.9-0.5-1.5-1.5-1.5-2.7l33.5,18.2
							C139.7,667.9,140.3,668.9,141.2,669.4z"/>
					</defs>
					<clipPath id="SVGID_26_">
						<use xlink:href="#SVGID_25_"  style="overflow:visible;"/>
					</clipPath>
					<g class="st19">
						<path class="st2" d="M141.2,669.4l-33.5-18.2c-0.9-0.5-1.5-1.5-1.5-2.7l33.5,18.2C139.7,667.9,140.3,668.9,141.2,669.4"/>
						<path class="st6" d="M139.7,666.7l-33.5-18.2c0,0,0,0,0,0L139.7,666.7C139.7,666.6,139.7,666.6,139.7,666.7"/>
					</g>
				</g>
				<g>
					<polygon class="st3" points="143,620.3 109.5,602.1 380.1,564.1 413.6,582.3 					"/>
				</g>
				<g>
					<polygon class="st20" points="139.7,666.6 106.2,648.4 106.3,606.1 139.8,624.3 					"/>
				</g>
				<g>
					<path class="st16" d="M413.6,582.3c1.8-0.3,3.2,1.1,3.2,3.1l-0.1,42.3c0,1.9-1.5,3.7-3.3,4l-270.6,38c-1.8,0.3-3.2-1.1-3.2-3
						l0.1-42.3c0-1.9,1.5-3.7,3.3-4L413.6,582.3z"/>
				</g>
				<g class="st0">
					<defs>
						<path id="SVGID_27_" class="st0" d="M139.8,624.3l-33.5-18.2c0-1.9,1.5-3.7,3.3-4l33.5,18.2
							C141.2,620.6,139.8,622.4,139.8,624.3z"/>
					</defs>
					<clipPath id="SVGID_28_">
						<use xlink:href="#SVGID_27_"  style="overflow:visible;"/>
					</clipPath>
					<g class="st21">
						<path class="st6" d="M139.8,624.3l-33.5-18.2c0-0.4,0-0.7,0.1-1l33.5,18.2C139.8,623.6,139.8,623.9,139.8,624.3"/>
						<path class="st6" d="M139.9,623.3l-33.5-18.2c0.1-0.4,0.3-0.8,0.5-1.2l33.5,18.2C140.2,622.5,140,622.8,139.9,623.3"/>
						<path class="st7" d="M140.4,622.1l-33.5-18.2c0.4-0.7,1.1-1.3,1.8-1.6l33.5,18.2C141.5,620.8,140.9,621.4,140.4,622.1"/>
						<path class="st6" d="M142.2,620.5l-33.5-18.2c0.2-0.1,0.5-0.2,0.8-0.2l33.5,18.2C142.8,620.4,142.5,620.4,142.2,620.5"/>
					</g>
				</g>
			</g>
		</g>
	</g>
</g>
</svg>
